inDegrees=no
num_controls=7
num_derivatives=13
num_iterations=78
num_multipliers=7
num_parameters=0
num_slacks=7
num_states=26
objective=0.334227
objective_accelerations=0.036431
objective_balance=0.001215
objective_effort=0.027344
objective_height=0.267572
objective_ligament=0.001666
solver_duration=848.277613
status=Solve_Succeeded
success=true
DataType=double
version=3
OpenSimVersion=4.5
endheader
time	/jointset/ground_pelvis/pelvis_tilt/value	/jointset/ground_pelvis/pelvis_tx/value	/jointset/ground_pelvis/pelvis_ty/value	/jointset/hip_r/hip_flexion_r/value	/jointset/hip_r/hip_adduction_r/value	/jointset/hip_r/hip_rotation_r/value	/jointset/back/lumbar_extension/value	/jointset/patellofemoral_r/patellar_flexion_r/value	/jointset/knee_r/knee_flexion_r/value	/jointset/knee_r/knee_adduction_r/value	/jointset/knee_r/knee_rotation_r/value	/jointset/ankle_r/ankle_angle_r/value	/jointset/subtalar_r/subtalar_angle_r/value	/jointset/ground_pelvis/pelvis_tilt/speed	/jointset/ground_pelvis/pelvis_tx/speed	/jointset/ground_pelvis/pelvis_ty/speed	/jointset/hip_r/hip_flexion_r/speed	/jointset/hip_r/hip_adduction_r/speed	/jointset/hip_r/hip_rotation_r/speed	/jointset/back/lumbar_extension/speed	/jointset/patellofemoral_r/patellar_flexion_r/speed	/jointset/knee_r/knee_flexion_r/speed	/jointset/knee_r/knee_adduction_r/speed	/jointset/knee_r/knee_rotation_r/speed	/jointset/ankle_r/ankle_angle_r/speed	/jointset/subtalar_r/subtalar_angle_r/speed	/forceset/tau_hip_flexion_r	/forceset/tau_hip_adduction_r	/forceset/tau_hip_rotation_r	/forceset/tau_knee_flexion_r	/forceset/tau_ankle_angle_r	/forceset/tau_subtalar_angle_r	/forceset/tau_lumbar_extension	lambda_cid13_p0	lambda_cid14_p0	lambda_cid14_p1	lambda_cid14_p2	lambda_cid14_p3	lambda_cid14_p4	lambda_cid14_p5	/jointset/ground_pelvis/pelvis_tilt/accel	/jointset/ground_pelvis/pelvis_tx/accel	/jointset/ground_pelvis/pelvis_ty/accel	/jointset/hip_r/hip_flexion_r/accel	/jointset/hip_r/hip_adduction_r/accel	/jointset/hip_r/hip_rotation_r/accel	/jointset/back/lumbar_extension/accel	/jointset/patellofemoral_r/patellar_flexion_r/accel	/jointset/knee_r/knee_flexion_r/accel	/jointset/knee_r/knee_adduction_r/accel	/jointset/knee_r/knee_rotation_r/accel	/jointset/ankle_r/ankle_angle_r/accel	/jointset/subtalar_r/subtalar_angle_r/accel	gamma_cid13_p0	gamma_cid14_p0	gamma_cid14_p1	gamma_cid14_p2	gamma_cid14_p3	gamma_cid14_p4	gamma_cid14_p5
0	-0.01552113772288279	0.1362494828454538	0.9317391214918034	0.1934211968871041	-0.2455569305708668	-0.2306473093216818	-0.2903787966825928	0.2311786273363468	0.2311786273363406	0.1710450639435653	0.1731194844139054	0.089344008118978	0.04221248065672581	0	0	0	0	0	0	0	0	0	0	0	0	0	0.1019706332196941	-0.05671920488160724	0.009680799975401925	-0.2433393022066981	0.1166467938171998	-0.136876412697345	-0.02458190873293064	-30.05886711919046	-10.84994384278596	-55.63321864624228	2.766965020271395	3.356978068937479	-611.6512911865502	19.39265146688709	-2.062732846051667	-1.887235886880334	-0.8204871256956652	10.24212355697698	0.1940385090230068	2.920070450953394	-6.166139080614232	10.06030842981711	10.06030842981713	-2.864376484165119	-0.1322922277393264	2.718152308215999	0.9369843796222346	1.42471320594527e-07	7.822284496616334e-08	-1.020644792419513e-06	3.807336114336421e-07	5.473901315302593e-08	1.83218201158943e-07	-6.320059388844511e-07
0.01	-0.01561849804041866	0.1361573764722218	0.9316992136107153	0.1939195066925411	-0.2455461504153343	-0.2305026767239357	-0.2906895113725688	0.2316726614075693	0.2316726614075375	0.1709018163366327	0.1731110009412508	0.08947911288592286	0.0422604634578682	-0.01941946462314212	-0.01821788332421437	-0.007966866854902577	0.09907801471824351	0.002041645395971054	0.02836318424595386	-0.0618266033864677	0.09840983978379278	0.09840983978379281	-0.02833364263762339	-0.001209761444909305	0.02701609991319914	0.009464148038415568	0.1032867638834104	-0.07717607667074544	0.009135670536732728	-0.250662790439917	0.1253600541742807	-0.1233853844164913	-0.02445084710313146	-30.06269493089977	-7.401490133546849	-49.03701634610889	1.56314523982138	-0.9961861692011545	-612.8589068837553	33.89965961120836	-1.873660060864211	-1.75854490930731	-0.7825434173196125	9.653053878217914	0.1919889080312969	2.710034438459218	-6.143470776036312	9.671747090266393	9.671747090266431	-2.770603274450843	-0.04219298132494323	2.692639873893567	0.9311516584533587	1.200422925865233e-07	5.48216392488854e-08	-8.100125840767203e-07	3.718043212756978e-07	5.309519594741771e-08	5.808263711400488e-08	-5.584642947335556e-07
0.02	-0.01590847436227846	0.1358891951949246	0.9315800856706913	0.1953910793349553	-0.245518401535211	-0.2300912938783294	-0.2916090020580882	0.2331388789440918	0.2331388789440917	0.1704846832791326	0.1731050448785989	0.08988423886019797	0.0423990920678953	-0.03852320086300159	-0.03521498081306806	-0.01584401178718353	0.1946525673952845	0.003393744917808674	0.05335004957361218	-0.1217551991078522	0.194436693071827	0.1944366930718269	-0.05477709011084859	0.0005054819718469685	0.05400424146726651	0.01812916177691831	0.1046028945471813	-0.09763294845983514	0.008590541098575334	-0.2579862786731703	0.1340733145313815	-0.1098943561355808	-0.02431978547331164	-30.07447544928101	-3.873622692350382	-42.45163065660118	0.3892912393497314	-5.283366883658639	-612.7634366780577	48.10316165828559	-1.999587169395003	-1.643078719808285	-0.802542741171333	9.541431148736461	0.05612933419631803	2.244806667294284	-5.786537547597502	9.583711130665426	9.583711130665417	-2.48633745128548	0.4527087445938089	2.712560636389562	0.7771575196396376	9.761326457851958e-08	3.142043353160745e-08	-5.993803757339272e-07	3.628750311177534e-07	5.14513787418095e-08	-6.705292693093326e-08	-4.849226505826601e-07
0.03	-0.01638804755014506	0.1354558461235672	0.9313824210331113	0.1978029957469482	-0.2454794634620836	-0.2294422640173614	-0.293116559813927	0.2355530391402693	0.2355530391402775	0.1698108948832291	0.1731253196759118	0.09055776357211079	0.04262133904107734	-0.05731459012124668	-0.05138077299729903	-0.02368842385194529	0.2873177032460924	0.004412874485200716	0.07654092090857462	-0.1793089254655965	0.287930941909418	0.2879309419094181	-0.07985763033493942	0.003287575610085787	0.08057006741300567	0.02631037353922235	0.09831549068208273	-0.09899088702885717	0.009646409638136108	-0.2511395630872961	0.1239586850427875	-0.1039987694982137	-0.01918666472111068	-30.09448268989112	-6.838362491598726	-40.28887271320855	-0.09419105830791968	-3.944499961010905	-613.2012434020875	51.49039342059773	-1.80738021483522	-1.592210115144702	-0.7753305737607313	9.067108710070411	0.1276379705222522	2.369052132481143	-5.672676190442576	9.162601689780752	9.162601689780846	-2.500526366542406	0.1517473463120126	2.609010957792096	0.8370735314125677	1.383182104846917e-07	4.075640685690647e-08	-8.616838216567577e-07	4.940774791321384e-07	7.677946722651374e-08	-1.265756953880639e-07	-6.809268525491665e-07
